<?xml version="1.0" encoding="UTF-8"?>
<svg xmlns="http://www.w3.org/2000/svg" xmlns:xlink="http://www.w3.org/1999/xlink" width="20pt" height="20pt" viewBox="0 0 20 20" version="1.1">
<g id="surface1">
<path style=" stroke:none;fill-rule:nonzero;fill:rgb(0%,0%,0%);fill-opacity:1;" d="M 2.496094 10.554688 C 2.871094 10.609375 3.125 10.957031 3.007812 11.3125 L 1.703125 15.3125 C 1.332031 16.453125 2.175781 17.617188 3.371094 17.617188 L 5.734375 17.617188 L 7.296875 12.929688 L 9.554688 12.929688 L 10.335938 10.585938 L 12.804688 10.585938 L 15.539062 2.382812 L 3.105469 2.382812 C 1.394531 2.382812 0 3.777344 0 5.488281 L 0 7.65625 C 0 9.125 1.082031 10.34375 2.496094 10.554688 Z M 6.832031 10.617188 L 4.890625 16.445312 L 3.371094 16.445312 C 2.972656 16.445312 2.691406 16.058594 2.816406 15.675781 L 4.121094 11.675781 C 4.238281 11.316406 4.234375 10.933594 4.117188 10.585938 L 6.84375 10.585938 C 6.839844 10.597656 6.835938 10.605469 6.832031 10.617188 Z M 8.707031 11.757812 L 7.6875 11.757812 L 7.945312 10.988281 C 8.023438 10.746094 8.25 10.585938 8.5 10.585938 L 9.097656 10.585938 Z M 13.914062 3.554688 L 11.960938 9.414062 L 10.726562 9.414062 L 12.679688 3.554688 Z M 1.171875 5.488281 C 1.171875 4.421875 2.039062 3.554688 3.105469 3.554688 L 11.441406 3.554688 L 9.488281 9.414062 C 9.460938 9.414062 3.960938 9.414062 2.773438 9.414062 C 1.640625 9.175781 1.171875 8.453125 1.171875 7.65625 Z M 1.171875 5.488281 "/>
<path style=" stroke:none;fill-rule:nonzero;fill:rgb(0%,0%,0%);fill-opacity:1;" d="M 18.65625 9.726562 C 19.523438 8.863281 20 7.710938 20 6.484375 C 20 5.257812 19.523438 4.105469 18.65625 3.242188 L 17.828125 4.070312 C 18.472656 4.714844 18.828125 5.570312 18.828125 6.484375 C 18.828125 7.398438 18.472656 8.253906 17.828125 8.898438 Z M 18.65625 9.726562 "/>
<path style=" stroke:none;fill-rule:nonzero;fill:rgb(0%,0%,0%);fill-opacity:1;" d="M 17 8.070312 C 17.875 7.195312 17.875 5.773438 17 4.898438 L 16.171875 5.726562 C 16.589844 6.144531 16.589844 6.824219 16.171875 7.242188 Z M 17 8.070312 "/>
</g>
</svg>
