<?xml version="1.0" encoding="UTF-8"?>
<svg xmlns="http://www.w3.org/2000/svg" xmlns:xlink="http://www.w3.org/1999/xlink" width="10pt" height="10pt" viewBox="0 0 10 10" version="1.1">
<g id="surface1">
<path style=" stroke:none;fill-rule:nonzero;fill:rgb(0%,0%,0%);fill-opacity:1;" d="M 1.246094 5.277344 C 1.4375 5.304688 1.5625 5.476562 1.503906 5.65625 L 0.851562 7.65625 C 0.664062 8.226562 1.089844 8.808594 1.6875 8.808594 L 2.867188 8.808594 L 3.648438 6.464844 L 4.777344 6.464844 L 5.167969 5.292969 L 6.402344 5.292969 L 7.769531 1.191406 L 1.554688 1.191406 C 0.695312 1.191406 0 1.886719 0 2.746094 L 0 3.828125 C 0 4.5625 0.542969 5.171875 1.246094 5.277344 Z M 3.417969 5.308594 L 2.445312 8.222656 L 1.6875 8.222656 C 1.488281 8.222656 1.347656 8.027344 1.40625 7.839844 L 2.0625 5.839844 C 2.121094 5.660156 2.117188 5.46875 2.058594 5.292969 L 3.421875 5.292969 C 3.421875 5.296875 3.417969 5.304688 3.417969 5.308594 Z M 4.355469 5.878906 L 3.84375 5.878906 L 3.972656 5.492188 C 4.011719 5.375 4.125 5.292969 4.25 5.292969 L 4.550781 5.292969 Z M 6.957031 1.777344 L 5.980469 4.707031 L 5.363281 4.707031 L 6.339844 1.777344 Z M 0.585938 2.746094 C 0.585938 2.210938 1.019531 1.777344 1.554688 1.777344 L 5.722656 1.777344 L 4.746094 4.707031 C 4.730469 4.707031 1.980469 4.707031 1.386719 4.707031 C 0.820312 4.589844 0.585938 4.226562 0.585938 3.828125 Z M 0.585938 2.746094 "/>
<path style=" stroke:none;fill-rule:nonzero;fill:rgb(0%,0%,0%);fill-opacity:1;" d="M 9.328125 4.863281 C 9.761719 4.429688 10 3.855469 10 3.242188 C 10 2.628906 9.761719 2.054688 9.328125 1.621094 L 8.914062 2.035156 C 9.238281 2.355469 9.414062 2.785156 9.414062 3.242188 C 9.414062 3.699219 9.238281 4.128906 8.914062 4.449219 Z M 9.328125 4.863281 "/>
<path style=" stroke:none;fill-rule:nonzero;fill:rgb(0%,0%,0%);fill-opacity:1;" d="M 8.5 4.035156 C 8.9375 3.597656 8.9375 2.886719 8.5 2.449219 L 8.085938 2.863281 C 8.296875 3.070312 8.296875 3.410156 8.085938 3.621094 Z M 8.5 4.035156 "/>
</g>
</svg>
