<?xml version="1.0" encoding="UTF-8"?>
<svg xmlns="http://www.w3.org/2000/svg" xmlns:xlink="http://www.w3.org/1999/xlink" width="30pt" height="30pt" viewBox="0 0 30 30" version="1.1">
<g id="surface1">
<path style=" stroke:none;fill-rule:nonzero;fill:rgb(0%,0%,0%);fill-opacity:1;" d="M 3.742188 15.832031 C 4.308594 15.914062 4.683594 16.433594 4.511719 16.96875 L 2.550781 22.972656 C 1.996094 24.675781 3.265625 26.425781 5.058594 26.425781 L 8.601562 26.425781 L 10.945312 19.394531 L 14.328125 19.394531 L 15.5 15.878906 L 19.207031 15.878906 L 23.308594 3.574219 L 4.660156 3.574219 C 2.089844 3.574219 0 5.664062 0 8.234375 L 0 11.484375 C 0 13.6875 1.625 15.515625 3.742188 15.832031 Z M 10.25 15.925781 L 7.335938 24.667969 L 5.058594 24.667969 C 4.460938 24.667969 4.039062 24.085938 4.222656 23.515625 L 6.183594 17.515625 C 6.359375 16.976562 6.351562 16.402344 6.175781 15.878906 L 10.265625 15.878906 C 10.261719 15.894531 10.253906 15.910156 10.25 15.925781 Z M 13.0625 17.636719 L 11.53125 17.636719 L 11.917969 16.480469 C 12.039062 16.121094 12.371094 15.878906 12.75 15.878906 L 13.648438 15.878906 Z M 20.871094 5.332031 L 17.941406 14.121094 L 16.085938 14.121094 L 19.015625 5.332031 Z M 1.757812 8.234375 C 1.757812 6.632812 3.058594 5.332031 4.660156 5.332031 L 17.164062 5.332031 L 14.234375 14.121094 C 14.191406 14.121094 5.941406 14.121094 4.164062 14.121094 C 2.460938 13.765625 1.757812 12.679688 1.757812 11.484375 Z M 1.757812 8.234375 "/>
<path style=" stroke:none;fill-rule:nonzero;fill:rgb(0%,0%,0%);fill-opacity:1;" d="M 27.988281 14.589844 C 29.285156 13.292969 30 11.566406 30 9.726562 C 30 7.886719 29.285156 6.160156 27.988281 4.863281 L 26.746094 6.105469 C 27.710938 7.070312 28.242188 8.355469 28.242188 9.726562 C 28.242188 11.097656 27.710938 12.382812 26.746094 13.347656 Z M 27.988281 14.589844 "/>
<path style=" stroke:none;fill-rule:nonzero;fill:rgb(0%,0%,0%);fill-opacity:1;" d="M 25.5 12.105469 C 26.8125 10.792969 26.8125 8.660156 25.5 7.347656 L 24.257812 8.589844 C 24.886719 9.214844 24.886719 10.234375 24.257812 10.863281 Z M 25.5 12.105469 "/>
</g>
</svg>
