<?xml version="1.0" encoding="UTF-8"?>
<svg xmlns="http://www.w3.org/2000/svg" xmlns:xlink="http://www.w3.org/1999/xlink" width="24pt" height="22pt" viewBox="0 0 24 22" version="1.1">
<g id="surface1">
<path style=" stroke:none;fill-rule:evenodd;fill:rgb(0%,0%,0%);fill-opacity:1;" d="M 4.152344 5.738281 L 2.308594 5.738281 C 1.542969 5.738281 0.921875 5.09375 0.921875 4.304688 L 0.921875 2.390625 C 0.921875 1.601562 1.542969 0.957031 2.308594 0.957031 L 4.152344 0.957031 C 4.917969 0.957031 5.539062 1.601562 5.539062 2.390625 L 5.539062 4.304688 C 5.539062 5.09375 4.917969 5.738281 4.152344 5.738281 Z M 2.308594 1.914062 C 2.054688 1.914062 1.847656 2.128906 1.847656 2.390625 L 1.847656 4.304688 C 1.847656 4.566406 2.054688 4.78125 2.308594 4.78125 L 4.152344 4.78125 C 4.40625 4.78125 4.617188 4.566406 4.617188 4.304688 L 4.617188 2.390625 C 4.617188 2.128906 4.40625 1.914062 4.152344 1.914062 Z M 2.308594 1.914062 "/>
<path style=" stroke:none;fill-rule:evenodd;fill:rgb(0%,0%,0%);fill-opacity:1;" d="M 4.152344 13.390625 L 2.308594 13.390625 C 1.542969 13.390625 0.921875 12.746094 0.921875 11.957031 L 0.921875 10.042969 C 0.921875 9.253906 1.542969 8.609375 2.308594 8.609375 L 4.152344 8.609375 C 4.917969 8.609375 5.539062 9.253906 5.539062 10.042969 L 5.539062 11.957031 C 5.539062 12.746094 4.917969 13.390625 4.152344 13.390625 Z M 2.308594 9.566406 C 2.054688 9.566406 1.847656 9.78125 1.847656 10.042969 L 1.847656 11.957031 C 1.847656 12.21875 2.054688 12.433594 2.308594 12.433594 L 4.152344 12.433594 C 4.40625 12.433594 4.617188 12.21875 4.617188 11.957031 L 4.617188 10.042969 C 4.617188 9.78125 4.40625 9.566406 4.152344 9.566406 Z M 2.308594 9.566406 "/>
<path style=" stroke:none;fill-rule:evenodd;fill:rgb(0%,0%,0%);fill-opacity:1;" d="M 4.152344 21.042969 L 2.308594 21.042969 C 1.542969 21.042969 0.921875 20.398438 0.921875 19.609375 L 0.921875 17.695312 C 0.921875 16.90625 1.542969 16.261719 2.308594 16.261719 L 4.152344 16.261719 C 4.917969 16.261719 5.539062 16.90625 5.539062 17.695312 L 5.539062 19.609375 C 5.539062 20.398438 4.917969 21.042969 4.152344 21.042969 Z M 2.308594 17.21875 C 2.054688 17.21875 1.847656 17.433594 1.847656 17.695312 L 1.847656 19.609375 C 1.847656 19.871094 2.054688 20.085938 2.308594 20.085938 L 4.152344 20.085938 C 4.40625 20.085938 4.617188 19.871094 4.617188 19.609375 L 4.617188 17.695312 C 4.617188 17.433594 4.40625 17.21875 4.152344 17.21875 Z M 2.308594 17.21875 "/>
<path style=" stroke:none;fill-rule:evenodd;fill:rgb(0%,0%,0%);fill-opacity:1;" d="M 22.617188 3.824219 L 7.847656 3.824219 C 7.589844 3.824219 7.382812 3.613281 7.382812 3.347656 C 7.382812 3.082031 7.589844 2.871094 7.847656 2.871094 L 22.617188 2.871094 C 22.871094 2.871094 23.078125 3.082031 23.078125 3.347656 C 23.078125 3.613281 22.871094 3.824219 22.617188 3.824219 Z M 22.617188 3.824219 "/>
<path style=" stroke:none;fill-rule:evenodd;fill:rgb(0%,0%,0%);fill-opacity:1;" d="M 22.617188 11.476562 L 7.847656 11.476562 C 7.589844 11.476562 7.382812 11.265625 7.382812 11 C 7.382812 10.734375 7.589844 10.523438 7.847656 10.523438 L 22.617188 10.523438 C 22.871094 10.523438 23.078125 10.734375 23.078125 11 C 23.078125 11.265625 22.871094 11.476562 22.617188 11.476562 Z M 22.617188 11.476562 "/>
<path style=" stroke:none;fill-rule:evenodd;fill:rgb(0%,0%,0%);fill-opacity:1;" d="M 16.230469 19.128906 L 7.652344 19.128906 C 7.503906 19.128906 7.382812 18.917969 7.382812 18.652344 C 7.382812 18.386719 7.503906 18.175781 7.652344 18.175781 L 16.230469 18.175781 C 16.378906 18.175781 16.5 18.386719 16.5 18.652344 C 16.5 18.917969 16.378906 19.128906 16.230469 19.128906 Z M 16.230469 19.128906 "/>
<path style="fill-rule:evenodd;fill:rgb(0%,0%,0%);fill-opacity:1;stroke-width:6;stroke-linecap:butt;stroke-linejoin:miter;stroke:rgb(0%,0%,0%);stroke-opacity:1;stroke-miterlimit:3;" d="M 79.536417 327.519954 L 48.052036 293.019946 L 79.536417 258.58528 C 80.484334 257.474484 81.026001 256.036984 80.890584 254.599483 C 80.822876 253.096642 80.078084 251.724483 78.927042 250.80971 L 40.671826 219.315385 C 39.046825 218.008566 36.880158 217.747203 34.984324 218.596635 C 33.088491 219.511407 31.86974 221.406294 31.86974 223.497204 L 31.86974 275.377897 L 9.932236 251.332437 C 7.900985 249.176187 4.515568 248.980164 2.348901 251.005732 C 0.182234 252.96596 -0.0208915 256.363688 2.010359 258.58528 L 31.86974 291.321082 L 31.86974 294.784151 L 2.010359 327.519954 C -0.0208915 329.741545 0.182234 333.139273 2.348901 335.099501 C 4.515568 337.125069 7.900985 336.929047 9.932236 334.772796 L 31.86974 310.727336 L 31.86974 362.608029 C 31.86974 364.698939 33.088491 366.593826 34.984324 367.508599 C 35.729116 367.835303 36.473908 368.031326 37.286408 368.031326 C 38.505159 368.031326 39.6562 367.57394 40.671826 366.789849 L 78.927042 335.295524 C 80.078084 334.380751 80.822876 333.008591 80.890584 331.571091 C 81.026001 330.06825 80.484334 328.630749 79.536417 327.519954 Z M 42.635368 234.866524 L 67.755165 255.514256 L 42.635368 283.022785 Z M 42.635368 351.238709 L 42.635368 303.082448 L 67.755165 330.590977 Z M 42.635368 351.238709 " transform="matrix(0.0576923,0,0,0.0597826,17.79808,-1.076087)"/>
</g>
</svg>
