<?xml version="1.0" encoding="UTF-8"?>
<svg xmlns="http://www.w3.org/2000/svg" xmlns:xlink="http://www.w3.org/1999/xlink" width="74pt" height="66pt" viewBox="0 0 74 66" version="1.1">
<g id="surface1">
<path style=" stroke:none;fill-rule:evenodd;fill:rgb(0%,0%,0%);fill-opacity:1;" d="M 12.808594 17.21875 L 7.117188 17.21875 C 4.761719 17.21875 2.847656 15.285156 2.847656 12.914062 L 2.847656 7.175781 C 2.847656 4.800781 4.761719 2.871094 7.117188 2.871094 L 12.808594 2.871094 C 15.160156 2.871094 17.078125 4.800781 17.078125 7.175781 L 17.078125 12.914062 C 17.078125 15.285156 15.160156 17.21875 12.808594 17.21875 Z M 7.117188 5.738281 C 6.332031 5.738281 5.691406 6.386719 5.691406 7.175781 L 5.691406 12.914062 C 5.691406 13.703125 6.332031 14.347656 7.117188 14.347656 L 12.808594 14.347656 C 13.589844 14.347656 14.230469 13.703125 14.230469 12.914062 L 14.230469 7.175781 C 14.230469 6.386719 13.589844 5.738281 12.808594 5.738281 Z M 7.117188 5.738281 "/>
<path style=" stroke:none;fill-rule:evenodd;fill:rgb(0%,0%,0%);fill-opacity:1;" d="M 12.808594 40.175781 L 7.117188 40.175781 C 4.761719 40.175781 2.847656 38.242188 2.847656 35.871094 L 2.847656 30.128906 C 2.847656 27.757812 4.761719 25.824219 7.117188 25.824219 L 12.808594 25.824219 C 15.160156 25.824219 17.078125 27.757812 17.078125 30.128906 L 17.078125 35.871094 C 17.078125 38.242188 15.160156 40.175781 12.808594 40.175781 Z M 7.117188 28.695312 C 6.332031 28.695312 5.691406 29.339844 5.691406 30.128906 L 5.691406 35.871094 C 5.691406 36.660156 6.332031 37.304688 7.117188 37.304688 L 12.808594 37.304688 C 13.589844 37.304688 14.230469 36.660156 14.230469 35.871094 L 14.230469 30.128906 C 14.230469 29.339844 13.589844 28.695312 12.808594 28.695312 Z M 7.117188 28.695312 "/>
<path style=" stroke:none;fill-rule:evenodd;fill:rgb(0%,0%,0%);fill-opacity:1;" d="M 12.808594 63.128906 L 7.117188 63.128906 C 4.761719 63.128906 2.847656 61.199219 2.847656 58.824219 L 2.847656 53.085938 C 2.847656 50.714844 4.761719 48.78125 7.117188 48.78125 L 12.808594 48.78125 C 15.160156 48.78125 17.078125 50.714844 17.078125 53.085938 L 17.078125 58.824219 C 17.078125 61.199219 15.160156 63.128906 12.808594 63.128906 Z M 7.117188 51.652344 C 6.332031 51.652344 5.691406 52.296875 5.691406 53.085938 L 5.691406 58.824219 C 5.691406 59.613281 6.332031 60.261719 7.117188 60.261719 L 12.808594 60.261719 C 13.589844 60.261719 14.230469 59.613281 14.230469 58.824219 L 14.230469 53.085938 C 14.230469 52.296875 13.589844 51.652344 12.808594 51.652344 Z M 7.117188 51.652344 "/>
<path style=" stroke:none;fill-rule:evenodd;fill:rgb(0%,0%,0%);fill-opacity:1;" d="M 69.730469 11.476562 L 24.191406 11.476562 C 23.40625 11.476562 22.769531 10.835938 22.769531 10.042969 C 22.769531 9.25 23.40625 8.609375 24.191406 8.609375 L 69.730469 8.609375 C 70.515625 8.609375 71.152344 9.25 71.152344 10.042969 C 71.152344 10.835938 70.515625 11.476562 69.730469 11.476562 Z M 69.730469 11.476562 "/>
<path style=" stroke:none;fill-rule:evenodd;fill:rgb(0%,0%,0%);fill-opacity:1;" d="M 69.730469 34.433594 L 24.191406 34.433594 C 23.40625 34.433594 22.769531 33.792969 22.769531 33 C 22.769531 32.207031 23.40625 31.566406 24.191406 31.566406 L 69.730469 31.566406 C 70.515625 31.566406 71.152344 32.207031 71.152344 33 C 71.152344 33.792969 70.515625 34.433594 69.730469 34.433594 Z M 69.730469 34.433594 "/>
<path style=" stroke:none;fill-rule:evenodd;fill:rgb(0%,0%,0%);fill-opacity:1;" d="M 50.046875 57.390625 L 23.597656 57.390625 C 23.140625 57.390625 22.769531 56.75 22.769531 55.957031 C 22.769531 55.164062 23.140625 54.523438 23.597656 54.523438 L 50.046875 54.523438 C 50.503906 54.523438 50.875 55.164062 50.875 55.957031 C 50.875 56.75 50.503906 57.390625 50.046875 57.390625 Z M 50.046875 57.390625 "/>
<path style="fill-rule:evenodd;fill:rgb(0%,0%,0%);fill-opacity:1;stroke-width:6;stroke-linecap:butt;stroke-linejoin:miter;stroke:rgb(0%,0%,0%);stroke-opacity:1;stroke-miterlimit:3;" d="M 79.501648 327.541734 L 48.011777 293.041726 L 79.501648 258.58528 C 80.489824 257.496264 80.994892 256.036984 80.885095 254.577703 C 80.797257 253.118422 80.094554 251.746263 78.952662 250.80971 L 40.677316 219.337165 C 39.074275 218.008566 36.856369 217.747203 34.967855 218.618415 C 33.079341 219.511407 31.89353 221.406294 31.89353 223.475423 L 31.89353 275.399677 L 9.912106 251.332437 C 7.935754 249.154406 4.532037 249.001944 2.336091 250.983952 C 0.162104 252.98774 0.0083878 256.385468 2.006699 258.563499 L 31.89353 291.321082 L 31.89353 294.784151 L 2.006699 327.541734 C 0.0083878 329.719765 0.140145 333.117493 2.336091 335.121281 C 4.532037 337.125069 7.935754 336.950827 9.912106 334.772796 L 31.89353 310.705556 L 31.89353 362.62981 C 31.89353 364.720719 33.079341 366.593826 34.967855 367.486818 C 35.692517 367.835303 36.483058 368.009546 37.251639 368.009546 C 38.481369 368.009546 39.68914 367.57394 40.677316 366.789849 L 78.952662 335.295524 C 80.094554 334.35897 80.797257 333.008591 80.885095 331.549311 C 80.994892 330.06825 80.489824 328.630749 79.501648 327.541734 Z M 42.631708 234.844744 L 67.775294 255.514256 L 42.631708 283.044565 Z M 42.631708 351.260489 L 42.631708 303.060668 L 67.775294 330.590977 Z M 42.631708 351.260489 " transform="matrix(0.177885,0,0,0.179348,54.877414,-3.22826)"/>
</g>
</svg>
