<?xml version="1.0" encoding="UTF-8"?>
<svg xmlns="http://www.w3.org/2000/svg" xmlns:xlink="http://www.w3.org/1999/xlink" width="49pt" height="44pt" viewBox="0 0 49 44" version="1.1">
<g id="surface1">
<path style=" stroke:none;fill-rule:evenodd;fill:rgb(0%,0%,0%);fill-opacity:1;" d="M 8.480469 11.476562 L 4.710938 11.476562 C 3.152344 11.476562 1.882812 10.191406 1.882812 8.609375 L 1.882812 4.78125 C 1.882812 3.199219 3.152344 1.914062 4.710938 1.914062 L 8.480469 1.914062 C 10.039062 1.914062 11.308594 3.199219 11.308594 4.78125 L 11.308594 8.609375 C 11.308594 10.191406 10.039062 11.476562 8.480469 11.476562 Z M 4.710938 3.824219 C 4.191406 3.824219 3.769531 4.257812 3.769531 4.78125 L 3.769531 8.609375 C 3.769531 9.136719 4.191406 9.566406 4.710938 9.566406 L 8.480469 9.566406 C 9 9.566406 9.421875 9.136719 9.421875 8.609375 L 9.421875 4.78125 C 9.421875 4.257812 9 3.824219 8.480469 3.824219 Z M 4.710938 3.824219 "/>
<path style=" stroke:none;fill-rule:evenodd;fill:rgb(0%,0%,0%);fill-opacity:1;" d="M 8.480469 26.78125 L 4.710938 26.78125 C 3.152344 26.78125 1.882812 25.496094 1.882812 23.914062 L 1.882812 20.085938 C 1.882812 18.503906 3.152344 17.21875 4.710938 17.21875 L 8.480469 17.21875 C 10.039062 17.21875 11.308594 18.503906 11.308594 20.085938 L 11.308594 23.914062 C 11.308594 25.496094 10.039062 26.78125 8.480469 26.78125 Z M 4.710938 19.128906 C 4.191406 19.128906 3.769531 19.5625 3.769531 20.085938 L 3.769531 23.914062 C 3.769531 24.4375 4.191406 24.871094 4.710938 24.871094 L 8.480469 24.871094 C 9 24.871094 9.421875 24.4375 9.421875 23.914062 L 9.421875 20.085938 C 9.421875 19.5625 9 19.128906 8.480469 19.128906 Z M 4.710938 19.128906 "/>
<path style=" stroke:none;fill-rule:evenodd;fill:rgb(0%,0%,0%);fill-opacity:1;" d="M 8.480469 42.085938 L 4.710938 42.085938 C 3.152344 42.085938 1.882812 40.800781 1.882812 39.21875 L 1.882812 35.390625 C 1.882812 33.808594 3.152344 32.523438 4.710938 32.523438 L 8.480469 32.523438 C 10.039062 32.523438 11.308594 33.808594 11.308594 35.390625 L 11.308594 39.21875 C 11.308594 40.800781 10.039062 42.085938 8.480469 42.085938 Z M 4.710938 34.433594 C 4.191406 34.433594 3.769531 34.863281 3.769531 35.390625 L 3.769531 39.21875 C 3.769531 39.742188 4.191406 40.175781 4.710938 40.175781 L 8.480469 40.175781 C 9 40.175781 9.421875 39.742188 9.421875 39.21875 L 9.421875 35.390625 C 9.421875 34.863281 9 34.433594 8.480469 34.433594 Z M 4.710938 34.433594 "/>
<path style=" stroke:none;fill-rule:evenodd;fill:rgb(0%,0%,0%);fill-opacity:1;" d="M 46.171875 7.652344 L 16.019531 7.652344 C 15.5 7.652344 15.078125 7.222656 15.078125 6.695312 C 15.078125 6.167969 15.5 5.738281 16.019531 5.738281 L 46.171875 5.738281 C 46.695312 5.738281 47.117188 6.167969 47.117188 6.695312 C 47.117188 7.222656 46.695312 7.652344 46.171875 7.652344 Z M 46.171875 7.652344 "/>
<path style=" stroke:none;fill-rule:evenodd;fill:rgb(0%,0%,0%);fill-opacity:1;" d="M 46.171875 22.957031 L 16.019531 22.957031 C 15.5 22.957031 15.078125 22.527344 15.078125 22 C 15.078125 21.472656 15.5 21.042969 16.019531 21.042969 L 46.171875 21.042969 C 46.695312 21.042969 47.117188 21.472656 47.117188 22 C 47.117188 22.527344 46.695312 22.957031 46.171875 22.957031 Z M 46.171875 22.957031 "/>
<path style=" stroke:none;fill-rule:evenodd;fill:rgb(0%,0%,0%);fill-opacity:1;" d="M 33.140625 38.261719 L 15.625 38.261719 C 15.320312 38.261719 15.078125 37.832031 15.078125 37.304688 C 15.078125 36.777344 15.320312 36.347656 15.625 36.347656 L 33.140625 36.347656 C 33.441406 36.347656 33.6875 36.777344 33.6875 37.304688 C 33.6875 37.832031 33.441406 38.261719 33.140625 38.261719 Z M 33.140625 38.261719 "/>
<path style="fill-rule:evenodd;fill:rgb(0%,0%,0%);fill-opacity:1;stroke-width:6;stroke-linecap:butt;stroke-linejoin:miter;stroke:rgb(0%,0%,0%);stroke-opacity:1;stroke-miterlimit:3;" d="M 79.510163 327.552624 L 48.005054 293.052617 L 79.510163 258.58528 C 80.505061 257.474484 81.00251 256.036984 80.903021 254.566813 C 80.803531 253.096642 80.073939 251.757153 78.946388 250.80971 L 40.675971 219.315385 C 39.084134 218.008566 36.862195 217.747203 34.971888 218.629305 C 33.081582 219.511407 31.887704 221.406294 31.887704 223.464533 L 31.887704 275.410567 L 9.933617 251.332437 C 7.943821 249.143516 4.528004 249.012834 2.339228 251.005732 C 0.150452 252.998631 -0.0153643 256.396359 2.007595 258.58528 L 31.887704 291.321082 L 31.887704 294.784151 L 2.007595 327.552624 C -0.0153643 329.708875 0.150452 333.106603 2.339228 335.132171 C 4.528004 337.125069 7.943821 336.961717 9.933617 334.772796 L 31.887704 310.694666 L 31.887704 362.6407 C 31.887704 364.698939 33.081582 366.593826 34.971888 367.475928 C 35.70148 367.835303 36.464235 367.998656 37.260154 367.998656 C 38.487195 367.998656 39.681073 367.57394 40.675971 366.789849 L 78.946388 335.295524 C 80.073939 334.34808 80.803531 333.008591 80.903021 331.53842 C 81.00251 330.06825 80.505061 328.630749 79.510163 327.552624 Z M 42.632604 234.833854 L 67.770365 255.514256 L 42.632604 283.055455 Z M 42.632604 351.271379 L 42.632604 303.082448 L 67.770365 330.590977 Z M 42.632604 351.271379 " transform="matrix(0.117788,0,0,0.119565,36.337747,-2.152173)"/>
</g>
</svg>
