<?xml version="1.0" encoding="iso-8859-1"?>
<!-- Generator: Adobe Illustrator 19.0.0, SVG Export Plug-In . SVG Version: 6.00 Build 0)  -->
<svg version="1.1" id="Capa_1" xmlns="http://www.w3.org/2000/svg" xmlns:xlink="http://www.w3.org/1999/xlink" x="0px" y="0px"
	 viewBox="0 0 512 512" style="enable-background:new 0 0 512 512;" xml:space="preserve">
<rect x="76" y="10" style="fill:#FFDCAF;" width="360" height="492"/>
<rect x="116" y="50" style="fill:#FF9155;" width="280" height="452"/>
<g>
	<path style="fill:#F5A55B;" d="M216,252h-40c-11.046,0-20-8.954-20-20V120c0-11.046,8.954-20,20-20h40c11.046,0,20,8.954,20,20v112
		C236,243.046,227.046,252,216,252z"/>
	<path style="fill:#F5A55B;" d="M336,252h-40c-11.046,0-20-8.954-20-20V120c0-11.046,8.954-20,20-20h40c11.046,0,20,8.954,20,20v112
		C356,243.046,347.046,252,336,252z"/>
	<path style="fill:#F5A55B;" d="M216,452h-40c-11.046,0-20-8.954-20-20V310c0-11.046,8.954-20,20-20h40c11.046,0,20,8.954,20,20v122
		C236,443.046,227.046,452,216,452z"/>
	<path style="fill:#F5A55B;" d="M336,452h-40c-11.046,0-20-8.954-20-20V310c0-11.046,8.954-20,20-20h40c11.046,0,20,8.954,20,20v122
		C356,443.046,347.046,452,336,452z"/>
</g>
<path d="M475,492h-29V10c0-5.523-4.477-10-10-10H76c-5.523,0-10,4.477-10,10v482H37c-5.523,0-10,4.478-10,10s4.477,10,10,10h438
	c5.523,0,10-4.478,10-10S480.523,492,475,492z M406,492V50c0-5.523-4.477-10-10-10H116c-5.523,0-10,4.477-10,10v182
	c0,5.523,4.477,10,10,10s10-4.477,10-10V60h260v432H126V315c0-5.522-4.477-10-10-10s-10,4.478-10,10v177H86V20h340v472H406z"/>
<path d="M176,262h40c16.542,0,30-13.458,30-30V120c0-16.542-13.458-30-30-30h-40c-16.542,0-30,13.458-30,30v112
	C146,248.542,159.458,262,176,262z M166,120c0-5.514,4.486-10,10-10h40c5.514,0,10,4.486,10,10v112c0,5.514-4.486,10-10,10h-40
	c-5.514,0-10-4.486-10-10V120z"/>
<path d="M296,262h40c16.542,0,30-13.458,30-30V120c0-16.542-13.458-30-30-30h-40c-16.542,0-30,13.458-30,30v112
	C266,248.542,279.458,262,296,262z M286,120c0-5.514,4.486-10,10-10h40c5.514,0,10,4.486,10,10v112c0,5.514-4.486,10-10,10h-40
	c-5.514,0-10-4.486-10-10V120z"/>
<path d="M176,462h40c16.542,0,30-13.458,30-30V310c0-16.542-13.458-30-30-30h-40c-16.542,0-30,13.458-30,30v122
	C146,448.542,159.458,462,176,462z M166,310c0-5.514,4.486-10,10-10h40c5.514,0,10,4.486,10,10v122c0,5.514-4.486,10-10,10h-40
	c-5.514,0-10-4.486-10-10V310z"/>
<path d="M296,462h40c16.542,0,30-13.458,30-30V310c0-16.542-13.458-30-30-30h-40c-16.542,0-30,13.458-30,30v122
	C266,448.542,279.458,462,296,462z M286,310c0-5.514,4.486-10,10-10h40c5.514,0,10,4.486,10,10v122c0,5.514-4.486,10-10,10h-10v-58
	c0-5.522-4.477-10-10-10s-10,4.478-10,10v58h-10c-5.514,0-10-4.486-10-10V310z"/>
<path d="M108.93,283.069c1.86,1.86,4.44,2.931,7.07,2.931s5.21-1.07,7.07-2.931c1.86-1.859,2.93-4.439,2.93-7.069
	s-1.07-5.21-2.93-7.07S118.63,266,116,266s-5.21,1.069-7.07,2.93c-1.86,1.86-2.93,4.44-2.93,7.07S107.07,281.21,108.93,283.069z"/>
<path d="M316,358c2.63,0,5.21-1.07,7.07-2.931c1.86-1.859,2.93-4.439,2.93-7.069s-1.07-5.21-2.93-7.07S318.63,338,316,338
	s-5.21,1.069-7.07,2.93c-1.86,1.86-2.93,4.44-2.93,7.07s1.07,5.21,2.93,7.069C310.79,356.93,313.37,358,316,358z"/>
<g>
</g>
<g>
</g>
<g>
</g>
<g>
</g>
<g>
</g>
<g>
</g>
<g>
</g>
<g>
</g>
<g>
</g>
<g>
</g>
<g>
</g>
<g>
</g>
<g>
</g>
<g>
</g>
<g>
</g>
</svg>
