<svg id="Capa_1" enable-background="new 0 0 512 512" height="512" viewBox="0 0 512 512" width="512" xmlns="http://www.w3.org/2000/svg"><g><path d="m10 103.5v352.5h492v-400h-492z" fill="#cbf4fb"/><path d="m276 144h152v312h-152z" fill="#d0a084"/><path d="m123 233h40v266h-40z" fill="#fff" transform="matrix(0 1 -1 0 509 223)"/><path d="m10 386h40v70h-40z" fill="#d0a084"/><path d="m10 346v-20c0-11.046 8.954-20 20-20h40c11.046 0 20 8.954 20 20v20z" fill="#fff"/><path d="m236 386h40v70h-40z" fill="#d0a084"/><path d="m316 184h72v40h-72z" fill="#98eaf9"/><g fill="#9b98e7"><path d="m10 136v-80h80z"/><path d="m502 136v-80h-80z"/><path d="m422 456h80v-80z"/></g><g><circle cx="502" cy="255.5" r="10"/><path d="m388 174h-72c-5.522 0-10 4.477-10 10v40c0 5.523 4.478 10 10 10h72c5.522 0 10-4.477 10-10v-40c0-5.523-4.478-10-10-10zm-10 40h-52v-20h52z"/><path d="m388 290h-20c-5.522 0-10 4.477-10 10s4.478 10 10 10h20c5.522 0 10-4.477 10-10s-4.478-10-10-10z"/><path d="m512 300.5c0-5.51-4.49-10-10-10s-10 4.49-10 10v71.357l-54 54v-281.857c0-5.523-4.478-10-10-10h-152c-5.522 0-10 4.477-10 10v192h-166v-10c0-16.542-13.458-30-30-30h-40c-3.506 0-6.87.61-10 1.72v-157.577l74.143-74.143h323.715l74.142 74.143v70.357c0 5.51 4.49 10 10 10 5.52 0 10-4.49 10-10v-.01-154.49c0-2.63-1.07-5.21-2.931-7.07-1.859-1.86-4.439-2.93-7.069-2.93h-492c-2.63 0-5.21 1.07-7.07 2.93-1.861 1.86-2.93 4.44-2.93 7.07v400c0 .329.017.657.05.983.463 4.738 4.23 8.505 8.968 8.967.325.033.653.05.982.05h492c2.63 0 5.21-1.07 7.069-2.93 1.86-1.86 2.931-4.44 2.931-7.07zm-246 75.5h-246v-20h246zm-40 20v50h-166v-50zm-196-80h40c5.514 0 10 4.486 10 10v10h-60v-10c0-5.514 4.486-10 10-10zm462-204.143-45.857-45.857h45.857zm-426.143-45.857-45.857 45.857v-45.857zm-45.857 380v-50h20v50zm226-50h20v50h-20zm40-242h132v291.857l-.143.143h-131.857zm160.143 292 45.857-45.857v45.857z"/></g></g></svg>